<mxfile host="app.diagrams.net" modified="2021-07-07T10:12:29.570Z" agent="5.0 (X11; Linux x86_64) AppleWebKit/537.36 (KHTML, like Gecko) Chrome/91.0.4472.114 Safari/537.36" etag="wqrAEfLRDQK1pLuB8WZd" version="14.8.4" type="github">
  <diagram id="jj6a5GREWnMmPAgLRQ6X" name="Page-1">
    <mxGraphModel dx="1374" dy="774" grid="1" gridSize="10" guides="1" tooltips="1" connect="1" arrows="1" fold="1" page="1" pageScale="1" pageWidth="827" pageHeight="1169" math="0" shadow="0">
      <root>
        <mxCell id="0" />
        <mxCell id="1" parent="0" />
        <mxCell id="3IXZmOgre2Sv1acujNAr-1" value="" style="endArrow=none;html=1;" edge="1" parent="1">
          <mxGeometry width="50" height="50" relative="1" as="geometry">
            <mxPoint x="220" y="360" as="sourcePoint" />
            <mxPoint x="540" y="360" as="targetPoint" />
          </mxGeometry>
        </mxCell>
        <mxCell id="3IXZmOgre2Sv1acujNAr-2" value="" style="endArrow=none;html=1;" edge="1" parent="1">
          <mxGeometry width="50" height="50" relative="1" as="geometry">
            <mxPoint x="440" y="440" as="sourcePoint" />
            <mxPoint x="440" y="360" as="targetPoint" />
          </mxGeometry>
        </mxCell>
        <mxCell id="3IXZmOgre2Sv1acujNAr-3" value="" style="endArrow=none;html=1;" edge="1" parent="1">
          <mxGeometry width="50" height="50" relative="1" as="geometry">
            <mxPoint x="280" y="360" as="sourcePoint" />
            <mxPoint x="280" y="280" as="targetPoint" />
          </mxGeometry>
        </mxCell>
        <mxCell id="3IXZmOgre2Sv1acujNAr-4" value="" style="verticalLabelPosition=bottom;html=1;verticalAlign=top;align=center;strokeColor=none;fillColor=#00BEF2;shape=mxgraph.azure.computer;pointerEvents=1;" vertex="1" parent="1">
          <mxGeometry x="420" y="440" width="50" height="45" as="geometry" />
        </mxCell>
        <mxCell id="3IXZmOgre2Sv1acujNAr-5" value="" style="points=[];aspect=fixed;html=1;align=center;shadow=0;dashed=0;image;image=img/lib/allied_telesis/computer_and_terminals/Server_Desktop.svg;" vertex="1" parent="1">
          <mxGeometry x="260" y="220" width="42.599999999999994" height="54" as="geometry" />
        </mxCell>
        <mxCell id="3IXZmOgre2Sv1acujNAr-6" value="DNS SERVER" style="text;strokeColor=none;fillColor=none;html=1;fontSize=24;fontStyle=1;verticalAlign=middle;align=center;" vertex="1" parent="1">
          <mxGeometry x="270" y="170" width="20" height="10" as="geometry" />
        </mxCell>
        <mxCell id="3IXZmOgre2Sv1acujNAr-7" value="Client" style="text;strokeColor=none;fillColor=none;html=1;fontSize=24;fontStyle=1;verticalAlign=middle;align=center;" vertex="1" parent="1">
          <mxGeometry x="395" y="490" width="100" height="40" as="geometry" />
        </mxCell>
        <mxCell id="3IXZmOgre2Sv1acujNAr-8" value="&lt;ul&gt;&lt;li&gt;IP : 192.168.122.2/24&lt;/li&gt;&lt;/ul&gt;" style="text;strokeColor=none;fillColor=none;html=1;whiteSpace=wrap;verticalAlign=middle;overflow=hidden;" vertex="1" parent="1">
          <mxGeometry x="260" y="160" width="190" height="80" as="geometry" />
        </mxCell>
        <mxCell id="3IXZmOgre2Sv1acujNAr-9" value="&lt;ul&gt;&lt;li&gt;IP: 192.168.122.3/24&lt;/li&gt;&lt;/ul&gt;" style="text;strokeColor=none;fillColor=none;html=1;whiteSpace=wrap;verticalAlign=middle;overflow=hidden;" vertex="1" parent="1">
          <mxGeometry x="450" y="440" width="230" height="80" as="geometry" />
        </mxCell>
      </root>
    </mxGraphModel>
  </diagram>
</mxfile>
